<?xml version="1.0" encoding="UTF-8" standalone="no"?>
<!-- Created with Inkscape (http://www.inkscape.org/) -->

<svg
   xmlns:dc="http://purl.org/dc/elements/1.1/"
   xmlns:cc="http://creativecommons.org/ns#"
   xmlns:rdf="http://www.w3.org/1999/02/22-rdf-syntax-ns#"
   xmlns:svg="http://www.w3.org/2000/svg"
   xmlns="http://www.w3.org/2000/svg"
   xmlns:xlink="http://www.w3.org/1999/xlink"
   xmlns:sodipodi="http://sodipodi.sourceforge.net/DTD/sodipodi-0.dtd"
   xmlns:inkscape="http://www.inkscape.org/namespaces/inkscape"
   width="210mm"
   height="297mm"
   viewBox="0 0 744.09448819 1052.3622047"
   id="svg2"
   version="1.1"
   inkscape:version="0.91 r13725"
   sodipodi:docname="archer2.svg">
  <defs
     id="defs4" />
  <sodipodi:namedview
     id="base"
     pagecolor="#ffffff"
     bordercolor="#666666"
     borderopacity="1.0"
     inkscape:pageopacity="0.0"
     inkscape:pageshadow="2"
     inkscape:zoom="1.081696"
     inkscape:cx="49.597836"
     inkscape:cy="549.76651"
     inkscape:document-units="px"
     inkscape:current-layer="layer1"
     showgrid="false"
     inkscape:window-width="1920"
     inkscape:window-height="1058"
     inkscape:window-x="1912"
     inkscape:window-y="-8"
     inkscape:window-maximized="1" />
  <metadata
     id="metadata7">
    <rdf:RDF>
      <cc:Work
         rdf:about="">
        <dc:format>image/svg+xml</dc:format>
        <dc:type
           rdf:resource="http://purl.org/dc/dcmitype/StillImage" />
      </cc:Work>
    </rdf:RDF>
  </metadata>
  <g
     inkscape:label="Layer 1"
     inkscape:groupmode="layer"
     id="layer1">
    <path
       style="opacity:1;fill:#c87137;fill-opacity:1;stroke:#000000;stroke-width:2.58995891;stroke-linecap:round;stroke-linejoin:round;stroke-miterlimit:4;stroke-dasharray:none;stroke-dashoffset:0;stroke-opacity:1"
       d="m 271.01584,467.02124 22.39101,0 c 0,0 1.64524,6.64098 3.48054,9.45272 3.60205,5.51846 14.23411,13.7202 14.23411,13.7202 l -65.35947,2.41444 c 0,0 18.22571,-8.1523 23.41428,-16.06975 1.77111,-2.70261 1.83953,-9.51761 1.83953,-9.51761 z"
       id="rect4190"
       inkscape:connector-curvature="0"
       sodipodi:nodetypes="ccaccac"
       inkscape:export-xdpi="13.947054"
       inkscape:export-ydpi="13.947054" />
    <ellipse
       ry="22.829634"
       rx="20.098763"
       cy="451.59561"
       cx="286.51877"
       id="ellipse4171-5"
       style="opacity:1;fill:#c87137;fill-opacity:1;stroke:#000000;stroke-width:1.681;stroke-linecap:round;stroke-linejoin:round;stroke-miterlimit:4;stroke-dasharray:none;stroke-dashoffset:0;stroke-opacity:1"
       inkscape:export-xdpi="13.947054"
       inkscape:export-ydpi="13.947054" />
    <path
       style="fill:#d4aa00;fill-rule:evenodd;stroke:#000000;stroke-width:1px;stroke-linecap:butt;stroke-linejoin:miter;stroke-opacity:1"
       d="m 304.30845,436.67423 -16.92005,-0.25254 -9.09137,7.32361 -4.79823,13.13198 -1.26269,18.68782 -9.84899,9.59645 c 0,0 -1.86453,-9.89014 -2.0203,-14.89975 -0.14428,-4.63985 0.0773,-9.3422 1.01015,-13.8896 1.55674,-7.58876 2.75792,-15.90473 7.57615,-21.97082 3.15228,-3.96869 7.90867,-7.09188 12.87944,-8.08121 5.9449,-1.18322 12.89808,-0.34881 17.93021,3.03046 2.38528,1.60181 4.54568,7.3236 4.54568,7.3236 z"
       id="path4260"
       inkscape:connector-curvature="0"
       sodipodi:nodetypes="ccccccaaaaac"
       inkscape:export-xdpi="13.947054"
       inkscape:export-ydpi="13.947054" />
    <path
       style="fill:#c87137;fill-rule:evenodd;stroke:#000000;stroke-width:2;stroke-linecap:butt;stroke-linejoin:miter;stroke-opacity:1;stroke-miterlimit:4;stroke-dasharray:none"
       d="m 239.40615,713.9611 15.15229,1.01015 -5.05076,87.88328 -7.07107,0 z"
       id="path4140"
       inkscape:connector-curvature="0"
       inkscape:export-xdpi="13.947054"
       inkscape:export-ydpi="13.947054" />
    <path
       style="fill:#c87137;fill-rule:evenodd;stroke:#000000;stroke-width:2;stroke-linecap:butt;stroke-linejoin:miter;stroke-opacity:1;stroke-miterlimit:4;stroke-dasharray:none"
       d="m 299.5057,710.94848 15.15229,1.01015 -5.05076,87.88328 -7.07107,0 z"
       id="path4140-4"
       inkscape:connector-curvature="0"
       inkscape:export-xdpi="13.947054"
       inkscape:export-ydpi="13.947054" />
    <path
       style="fill:#6c5d53;fill-rule:evenodd;stroke:#000000;stroke-width:1px;stroke-linecap:butt;stroke-linejoin:miter;stroke-opacity:1"
       d="m 241.42857,609.50506 -10,112.85714 34.28572,0 7.14285,-62.85714 10,0 11.42857,58.57143 27.14286,-1.42857 L 310,605.21935 Z"
       id="path4138"
       inkscape:connector-curvature="0"
       inkscape:export-xdpi="13.947054"
       inkscape:export-ydpi="13.947054" />
    <path
       style="fill:#008000;fill-rule:evenodd;stroke:#000000;stroke-width:1px;stroke-linecap:butt;stroke-linejoin:miter;stroke-opacity:1"
       d="m 235.22408,614.62761 81.10297,-0.54097 -2.49362,-20.84003 1.1517,-96.40978 69.42059,0.0867 -0.71428,-19.28572 -83.42401,0.0973 -17.0466,12.26547 -13.76213,-12.22955 -34.40794,0.0401 1.65379,112.40591 z"
       id="path4136"
       inkscape:connector-curvature="0"
       sodipodi:nodetypes="cccccccccccc"
       inkscape:export-xdpi="13.947054"
       inkscape:export-ydpi="13.947054" />
    <ellipse
       style="opacity:1;fill:#c87137;fill-opacity:1;stroke:#000000;stroke-width:2;stroke-linecap:round;stroke-linejoin:round;stroke-miterlimit:4;stroke-dasharray:none;stroke-dashoffset:0;stroke-opacity:1"
       id="path4161"
       cx="395.73096"
       cy="487.21426"
       rx="7.7861934"
       ry="11.357621"
       inkscape:export-xdpi="13.947054"
       inkscape:export-ydpi="13.947054" />
    <path
       style="fill:#00b800;fill-opacity:1;fill-rule:evenodd;stroke:#000000;stroke-width:0.87284786px;stroke-linecap:butt;stroke-linejoin:miter;stroke-opacity:1"
       d="m 376.09316,474.65763 1.61207,29.9945 19.31483,0 -2.62863,-30.75924 z"
       id="path4159"
       inkscape:connector-curvature="0"
       sodipodi:nodetypes="ccccc"
       inkscape:export-xdpi="13.947054"
       inkscape:export-ydpi="13.947054" />
    <path
       style="fill:#6c5d53;fill-rule:evenodd;stroke:#000000;stroke-width:1px;stroke-linecap:butt;stroke-linejoin:miter;stroke-opacity:1"
       d="m 300.88278,792.06935 1.45921,16.45831 25.95759,0.17857 c 0,0 -1.66079,-7.56654 -4.54569,-9.63978 -3.3973,-2.44148 -12.46628,-1.45395 -12.46628,-1.45395 l 0.52302,-6.01758 z"
       id="path4163"
       inkscape:connector-curvature="0"
       sodipodi:nodetypes="cccaccc"
       inkscape:export-xdpi="13.947054"
       inkscape:export-ydpi="13.947054" />
    <path
       style="fill:#6c5d53;fill-rule:evenodd;stroke:#000000;stroke-width:1px;stroke-linecap:butt;stroke-linejoin:miter;stroke-opacity:1"
       d="m 251.78052,796.28853 -11.61675,0 -0.10461,3.76487 c -2.53014,0.32685 -2.69929,6.78813 -3.17839,8.65283 l 17.16625,-0.21556 c 0.20093,-2.24061 -0.96471,-6.51563 -2.60569,-6.60822 0.3409,-3.12731 0.33919,-5.59392 0.33919,-5.59392 z"
       id="path4165"
       inkscape:connector-curvature="0"
       sodipodi:nodetypes="ccccccc"
       inkscape:export-xdpi="13.947054"
       inkscape:export-ydpi="13.947054" />
    <path
       style="fill:#a02c2c;fill-rule:evenodd;stroke:#000000;stroke-width:1px;stroke-linecap:butt;stroke-linejoin:miter;stroke-opacity:1"
       d="m 316.17775,587.69203 0.50507,10.10153 -81.82235,-2.02031 0,-10.10152 z"
       id="path4167"
       inkscape:connector-curvature="0"
       sodipodi:nodetypes="ccccc"
       inkscape:export-xdpi="13.947054"
       inkscape:export-ydpi="13.947054" />
    <path
       style="fill:#008000;fill-rule:evenodd;stroke:#000000;stroke-width:1px;stroke-linecap:butt;stroke-linejoin:miter;stroke-opacity:1"
       d="m 252.53814,478.09048 -52.52794,-0.50507 c -5.06374,5.55584 -2.88693,11.11167 0,16.66751 l 53.03301,0 z"
       id="path4169"
       inkscape:connector-curvature="0"
       sodipodi:nodetypes="ccccc"
       inkscape:export-xdpi="13.947054"
       inkscape:export-ydpi="13.947054" />
    <path
       style="fill:#999999;fill-rule:evenodd;stroke:#000000;stroke-width:1px;stroke-linecap:butt;stroke-linejoin:miter;stroke-opacity:1"
       d="m 271.73103,584.1565 0,17.17259 7.57615,0 -1.01015,-18.18274 z"
       id="path4192"
       inkscape:connector-curvature="0"
       inkscape:export-xdpi="13.947054"
       inkscape:export-ydpi="13.947054" />
    <path
       style="fill:#c87137;fill-rule:evenodd;stroke:#000000;stroke-width:1px;stroke-linecap:butt;stroke-linejoin:miter;stroke-opacity:1"
       d="m 303.92857,447.71935 8.21429,6.96429 -9.28572,1.25"
       id="path4262"
       inkscape:connector-curvature="0"
       inkscape:export-xdpi="13.947054"
       inkscape:export-ydpi="13.947054" />
    <path
       style="opacity:1;fill:#cccccc;fill-opacity:1;stroke:#000000;stroke-width:0.92082107;stroke-linecap:round;stroke-linejoin:round;stroke-miterlimit:4;stroke-dasharray:none;stroke-dashoffset:0;stroke-opacity:1"
       id="path4264"
       sodipodi:type="arc"
       sodipodi:cx="299.22894"
       sodipodi:cy="447.65173"
       sodipodi:rx="2.219871"
       sodipodi:ry="1.8645899"
       sodipodi:start="0"
       sodipodi:end="6.2297204"
       d="m 301.44881,447.65173 a 2.219871,1.8645899 0 0 1 -2.1902,1.86443 2.219871,1.8645899 0 0 1 -2.24875,-1.81459 2.219871,1.8645899 0 0 1 2.13009,-1.91293 2.219871,1.8645899 0 0 1 2.30569,1.76345"
       sodipodi:open="true"
       inkscape:export-xdpi="13.947054"
       inkscape:export-ydpi="13.947054" />
    <path
       style="fill:#c87137;fill-rule:evenodd;stroke:#000000;stroke-width:1px;stroke-linecap:butt;stroke-linejoin:miter;stroke-opacity:1"
       d="m 273.03572,456.46935 2.67857,3.03571 3.03571,-1.96428 -3.39285,-10.71429 z"
       id="path4268"
       inkscape:connector-curvature="0"
       inkscape:export-xdpi="13.947054"
       inkscape:export-ydpi="13.947054" />
    <path
       style="fill:#008000;fill-rule:evenodd;stroke:#000000;stroke-width:1px;stroke-linecap:butt;stroke-linejoin:miter;stroke-opacity:1"
       d="M 262.14286,439.14792 270,410.57649 l 30,-0.71429 8.92857,26.07143"
       id="path4272"
       inkscape:connector-curvature="0"
       inkscape:export-xdpi="13.947054"
       inkscape:export-ydpi="13.947054" />
    <path
       style="fill:#008000;fill-rule:evenodd;stroke:#000000;stroke-width:1px;stroke-linecap:butt;stroke-linejoin:miter;stroke-opacity:1"
       d="m 245.71428,436.64792 0.35715,5.71428 78.57143,-1.78571 -2.14286,-6.78571 z"
       id="path4270"
       inkscape:connector-curvature="0"
       sodipodi:nodetypes="ccccc"
       inkscape:export-xdpi="13.947054"
       inkscape:export-ydpi="13.947054" />
    <path
       style="fill:#000000;fill-rule:evenodd;stroke:#000000;stroke-width:1px;stroke-linecap:butt;stroke-linejoin:miter;stroke-opacity:1"
       d="m 296.22723,443.36649 0.12627,1.51523 5.05076,-0.75762 0,-0.88388 z"
       id="path4183"
       inkscape:connector-curvature="0"
       inkscape:export-xdpi="13.947054"
       inkscape:export-ydpi="13.947054" />
    <g
       id="g4246"
       inkscape:export-xdpi="13.947054"
       inkscape:export-ydpi="13.947054">
      <rect
         y="-665.72144"
         x="76.067673"
         height="119.21172"
         width="2.5653806"
         id="rect4244"
         style="opacity:1;fill:#e3dbdb;fill-opacity:1;stroke:#000000;stroke-width:1;stroke-linecap:round;stroke-linejoin:round;stroke-miterlimit:4;stroke-dasharray:none;stroke-dashoffset:0;stroke-opacity:1"
         transform="matrix(-0.79972479,0.60036678,-0.60036678,-0.79972479,0,0)" />
      <rect
         transform="matrix(0.75696846,0.65345141,-0.65345141,0.75696846,0,0)"
         style="opacity:1;fill:#e3dbdb;fill-opacity:1;stroke:#000000;stroke-width:1;stroke-linecap:round;stroke-linejoin:round;stroke-miterlimit:4;stroke-dasharray:none;stroke-dashoffset:0;stroke-opacity:1"
         id="rect4219"
         width="2.5"
         height="116.17352"
         x="514.25104"
         y="75.157516" />
      <g
         transform="translate(-182.14286,73.928571)"
         id="g4237">
        <path
           sodipodi:nodetypes="ccsssccsc"
           inkscape:connector-curvature="0"
           id="path4221"
           d="m 517.02171,317.86598 -0.45095,1.25556 c 25.82326,11.32369 40.98868,22.42456 48.38631,35.11806 6.4232,11.02149 14.67807,31.34344 15.31669,57.30166 0.52137,21.19247 -5.49268,42.65137 -15.48798,59.95404 -9.92668,17.18387 -24.92811,23.97522 -49.28829,34.91492 l 0.53298,2.16157 c 0,0 69.36984,-11.66272 69.3955,-96.0882 0.0258,-84.42548 -68.40426,-94.61761 -68.40426,-94.61761 z"
           style="fill:#a05a2c;fill-rule:evenodd;stroke:#000000;stroke-width:1.14567018px;stroke-linecap:butt;stroke-linejoin:miter;stroke-opacity:1" />
        <path
           inkscape:transform-center-y="-1.964386"
           inkscape:transform-center-x="0.00012571027"
           transform="matrix(0.93944003,0.34271335,-0.34271335,0.93944003,0,0)"
           d="m 600.35832,121.41381 a 1.4285715,3.125 0 0 1 -1.40948,3.12472 1.4285715,3.125 0 0 1 -1.44715,-3.0412 1.4285715,3.125 0 0 1 1.3708,-3.20601 1.4285715,3.125 0 0 1 1.48379,2.95551"
           sodipodi:open="true"
           sodipodi:end="6.2297259"
           sodipodi:start="0"
           sodipodi:ry="3.125"
           sodipodi:rx="1.4285715"
           sodipodi:cy="121.41381"
           sodipodi:cx="598.92975"
           sodipodi:type="arc"
           id="path4223"
           style="opacity:1;fill:#e3dbdb;fill-opacity:1;stroke:#000000;stroke-width:1;stroke-linecap:round;stroke-linejoin:round;stroke-miterlimit:4;stroke-dasharray:none;stroke-dashoffset:0;stroke-opacity:1" />
        <path
           style="opacity:1;fill:#e3dbdb;fill-opacity:1;stroke:#000000;stroke-width:1;stroke-linecap:round;stroke-linejoin:round;stroke-miterlimit:4;stroke-dasharray:none;stroke-dashoffset:0;stroke-opacity:1"
           id="path4225"
           sodipodi:type="arc"
           sodipodi:cx="601.41766"
           sodipodi:cy="122.50207"
           sodipodi:rx="1.4285715"
           sodipodi:ry="3.125"
           sodipodi:start="0"
           sodipodi:end="6.2297259"
           sodipodi:open="true"
           d="m 602.84624,122.50207 a 1.4285715,3.125 0 0 1 -1.40948,3.12472 1.4285715,3.125 0 0 1 -1.44716,-3.0412 1.4285715,3.125 0 0 1 1.3708,-3.20601 1.4285715,3.125 0 0 1 1.48379,2.95551"
           transform="matrix(0.93944003,0.34271335,-0.34271335,0.93944003,0,0)"
           inkscape:transform-center-x="0.00012571027"
           inkscape:transform-center-y="-1.964386" />
        <path
           style="opacity:1;fill:#e3dbdb;fill-opacity:1;stroke:#000000;stroke-width:1;stroke-linecap:round;stroke-linejoin:round;stroke-miterlimit:4;stroke-dasharray:none;stroke-dashoffset:0;stroke-opacity:1"
           id="path4227"
           sodipodi:type="arc"
           sodipodi:cx="205.58902"
           sodipodi:cy="695.39917"
           sodipodi:rx="1.4285715"
           sodipodi:ry="3.125"
           sodipodi:start="0"
           sodipodi:end="6.2297259"
           sodipodi:open="true"
           d="m 207.01759,695.39917 a 1.4285715,3.125 0 0 1 -1.40948,3.12472 1.4285715,3.125 0 0 1 -1.44715,-3.0412 1.4285715,3.125 0 0 1 1.3708,-3.20601 1.4285715,3.125 0 0 1 1.48379,2.95551"
           transform="matrix(0.8727029,-0.48825163,0.48825163,0.8727029,0,0)"
           inkscape:transform-center-x="2.4234354"
           inkscape:transform-center-y="7.0644926" />
        <path
           inkscape:transform-center-y="6.7994889"
           inkscape:transform-center-x="-0.27911844"
           transform="matrix(0.8727029,-0.48825163,0.48825163,0.8727029,0,0)"
           d="m 209.79143,695.2005 a 1.4285715,3.125 0 0 1 -1.40948,3.12472 1.4285715,3.125 0 0 1 -1.44716,-3.0412 1.4285715,3.125 0 0 1 1.3708,-3.20601 1.4285715,3.125 0 0 1 1.48379,2.95551"
           sodipodi:open="true"
           sodipodi:end="6.2297259"
           sodipodi:start="0"
           sodipodi:ry="3.125"
           sodipodi:rx="1.4285715"
           sodipodi:cy="695.2005"
           sodipodi:cx="208.36285"
           sodipodi:type="arc"
           id="path4229"
           style="opacity:1;fill:#e3dbdb;fill-opacity:1;stroke:#000000;stroke-width:1;stroke-linecap:round;stroke-linejoin:round;stroke-miterlimit:4;stroke-dasharray:none;stroke-dashoffset:0;stroke-opacity:1" />
      </g>
    </g>
    <g
       id="g4179"
       transform="translate(36.875,23.035714)"
       inkscape:export-xdpi="13.947054"
       inkscape:export-ydpi="13.947054">
      <path
         sodipodi:nodetypes="cccccccscccccccc"
         inkscape:connector-curvature="0"
         id="rect4166"
         d="m 219.96094,454.45117 0,15.56055 c 2.75068,0.009 5.72551,0 8.33212,0 0.84691,-0.77542 1.75571,-1.29361 1.77344,-2.26169 -0.0399,-0.83238 -1.76758,-1.76758 -1.76758,-1.76758 l -0.006,0 0,-0.0723 c 0.17038,-0.11696 1.81712,-1.26698 1.77344,-2.17774 -0.0287,-0.59934 -0.92194,-1.24203 -1.42579,-1.56054 l 5.48633,-0.14649 c 0,0 1.87803,-1.26365 1.83203,-2.22266 -0.032,-0.66763 -1.11146,-1.37626 -1.55273,-1.64062 0.51753,-0.39086 1.58777,-1.28915 1.55273,-2.01953 -0.0399,-0.83238 -1.76757,-1.76758 -1.76757,-1.76758 -4.71603,-0.0245 -9.87867,0.0815 -14.23047,0.0762 z"
         style="opacity:1;fill:#c87137;fill-opacity:1;stroke:#000000;stroke-width:1;stroke-linecap:round;stroke-linejoin:round;stroke-miterlimit:4;stroke-dasharray:none;stroke-dashoffset:0;stroke-opacity:1" />
      <path
         inkscape:connector-curvature="0"
         id="path4177"
         d="m 228.41045,458.16578 6.03626,0"
         style="fill:none;fill-rule:evenodd;stroke:#000000;stroke-width:1.08906877px;stroke-linecap:round;stroke-linejoin:miter;stroke-opacity:1" />
    </g>
    <path
       sodipodi:nodetypes="ccccc"
       inkscape:connector-curvature="0"
       id="path4173"
       d="m 244.77333,475.66778 1.61207,29.9945 19.31483,0 -2.62863,-30.75924 z"
       style="fill:#00b800;fill-opacity:1;fill-rule:evenodd;stroke:#000000;stroke-width:0.87284786px;stroke-linecap:butt;stroke-linejoin:miter;stroke-opacity:1"
       inkscape:export-xdpi="13.947054"
       inkscape:export-ydpi="13.947054" />
    <g
       id="g4209"
       transform="translate(196.78795,-70.776309)">
      <rect
         y="371.11221"
         x="428.21429"
         height="209.46432"
         width="2.5"
         id="rect4199"
         style="opacity:1;fill:#e3dbdb;fill-opacity:1;stroke:#000000;stroke-width:1;stroke-linecap:round;stroke-linejoin:round;stroke-miterlimit:4;stroke-dasharray:none;stroke-dashoffset:0;stroke-opacity:1" />
      <path
         sodipodi:nodetypes="ccsssccsc"
         inkscape:connector-curvature="0"
         id="path4189"
         d="m 427.50146,369.49707 -0.35532,1.50811 c 5.88407,5.63836 16.5083,21.84625 23.38631,45.29663 5.56258,18.96546 6.10664,32.95058 6.74526,58.90879 0.52137,21.19247 -0.15164,37.83067 -5.0764,57.26629 -4.96132,19.57992 -20.31367,46.36094 -24.34453,50.22958 l 0.53298,1.27768 c 0,0 34.0145,-23.40574 34.04016,-107.83122 0.0258,-84.42548 -34.92846,-106.65586 -34.92846,-106.65586 z"
         style="fill:#a05a2c;fill-rule:evenodd;stroke:#000000;stroke-width:1.14567018px;stroke-linecap:butt;stroke-linejoin:miter;stroke-opacity:1" />
      <path
         inkscape:transform-center-y="-1.964386"
         inkscape:transform-center-x="0.00012571027"
         transform="matrix(0.93944003,0.34271335,-0.34271335,0.93944003,0,0)"
         d="m 532.68052,202.08702 a 1.4285715,3.125 0 0 1 -1.40947,3.12472 1.4285715,3.125 0 0 1 -1.44716,-3.0412 1.4285715,3.125 0 0 1 1.3708,-3.20601 1.4285715,3.125 0 0 1 1.48379,2.95551"
         sodipodi:open="true"
         sodipodi:end="6.2297259"
         sodipodi:start="0"
         sodipodi:ry="3.125"
         sodipodi:rx="1.4285715"
         sodipodi:cy="202.08702"
         sodipodi:cx="531.25195"
         sodipodi:type="arc"
         id="path4201"
         style="opacity:1;fill:#e3dbdb;fill-opacity:1;stroke:#000000;stroke-width:1;stroke-linecap:round;stroke-linejoin:round;stroke-miterlimit:4;stroke-dasharray:none;stroke-dashoffset:0;stroke-opacity:1" />
      <path
         style="opacity:1;fill:#e3dbdb;fill-opacity:1;stroke:#000000;stroke-width:1;stroke-linecap:round;stroke-linejoin:round;stroke-miterlimit:4;stroke-dasharray:none;stroke-dashoffset:0;stroke-opacity:1"
         id="path4203"
         sodipodi:type="arc"
         sodipodi:cx="533.73987"
         sodipodi:cy="203.17528"
         sodipodi:rx="1.4285715"
         sodipodi:ry="3.125"
         sodipodi:start="0"
         sodipodi:end="6.2297259"
         sodipodi:open="true"
         d="m 535.16844,203.17528 a 1.4285715,3.125 0 0 1 -1.40948,3.12472 1.4285715,3.125 0 0 1 -1.44715,-3.0412 1.4285715,3.125 0 0 1 1.3708,-3.20601 1.4285715,3.125 0 0 1 1.48379,2.95551"
         transform="matrix(0.93944003,0.34271335,-0.34271335,0.93944003,0,0)"
         inkscape:transform-center-x="0.00012571027"
         inkscape:transform-center-y="-1.964386" />
      <path
         style="opacity:1;fill:#e3dbdb;fill-opacity:1;stroke:#000000;stroke-width:1;stroke-linecap:round;stroke-linejoin:round;stroke-miterlimit:4;stroke-dasharray:none;stroke-dashoffset:0;stroke-opacity:1"
         id="path4205"
         sodipodi:type="arc"
         sodipodi:cx="91.380424"
         sodipodi:cy="717.08826"
         sodipodi:rx="1.4285715"
         sodipodi:ry="3.125"
         sodipodi:start="0"
         sodipodi:end="6.2297259"
         sodipodi:open="true"
         d="m 92.808996,717.08826 a 1.4285715,3.125 0 0 1 -1.409479,3.12472 1.4285715,3.125 0 0 1 -1.447154,-3.0412 1.4285715,3.125 0 0 1 1.370799,-3.20601 1.4285715,3.125 0 0 1 1.483793,2.95551"
         transform="matrix(0.8727029,-0.48825163,0.48825163,0.8727029,0,0)"
         inkscape:transform-center-x="2.4234354"
         inkscape:transform-center-y="7.0644926" />
      <path
         inkscape:transform-center-y="6.7994889"
         inkscape:transform-center-x="-0.27911844"
         transform="matrix(0.8727029,-0.48825163,0.48825163,0.8727029,0,0)"
         d="m 95.582838,716.88959 a 1.4285715,3.125 0 0 1 -1.40948,3.12472 1.4285715,3.125 0 0 1 -1.447153,-3.0412 1.4285715,3.125 0 0 1 1.370799,-3.20601 1.4285715,3.125 0 0 1 1.483793,2.95551"
         sodipodi:open="true"
         sodipodi:end="6.2297259"
         sodipodi:start="0"
         sodipodi:ry="3.125"
         sodipodi:rx="1.4285715"
         sodipodi:cy="716.88959"
         sodipodi:cx="94.154266"
         sodipodi:type="arc"
         id="path4207"
         style="opacity:1;fill:#e3dbdb;fill-opacity:1;stroke:#000000;stroke-width:1;stroke-linecap:round;stroke-linejoin:round;stroke-miterlimit:4;stroke-dasharray:none;stroke-dashoffset:0;stroke-opacity:1" />
    </g>
    <g
       id="g4564"
       inkscape:export-filename="C:\Users\rh66844\g4564.png"
       inkscape:export-xdpi="14.185922"
       inkscape:export-ydpi="14.185922"
       transform="matrix(0.1952921,0,0,0.1952921,446.02865,480.37596)">
      <g
         transform="translate(-4,-42.426406)"
         id="g4526">
        <g
           id="g4459"
           transform="translate(163.84627,168.32654)">
          <path
             sodipodi:nodetypes="cccc"
             inkscape:connector-curvature="0"
             id="rect4450"
             d="m 440.42653,159.28166 96.97465,37.85026 -96.97465,37.85026 z"
             style="opacity:1;fill:#cccccc;fill-opacity:1;stroke:#000000;stroke-width:2.5999999;stroke-linecap:round;stroke-linejoin:round;stroke-miterlimit:4;stroke-dasharray:none;stroke-dashoffset:0;stroke-opacity:1" />
          <path
             inkscape:connector-curvature="0"
             id="path4457"
             d="m 439.24935,197.13192 96.1686,0"
             style="fill:none;fill-rule:evenodd;stroke:#000000;stroke-width:2.54064751;stroke-linecap:butt;stroke-linejoin:miter;stroke-miterlimit:4;stroke-dasharray:none;stroke-opacity:1" />
        </g>
        <path
           style="fill:#000000;fill-opacity:0.53488375;fill-rule:evenodd;stroke:none;stroke-width:1px;stroke-linecap:butt;stroke-linejoin:miter;stroke-opacity:1"
           d="m 696.50914,365.80347 c -15.34482,3.91621 -42.68204,5.60672 -52.03185,6.47424 -9.03307,0.83812 -25.55477,-5.06906 -40.45781,-2.26799 l 0,32.28907 96.97461,-37.84961 z"
           id="path4503"
           inkscape:connector-curvature="0"
           sodipodi:nodetypes="cscccc" />
      </g>
      <g
         transform="translate(0,-1.2508911)"
         id="g4387">
        <g
           id="g4346"
           transform="translate(1.0101525,30.304576)">
          <path
             inkscape:tile-y0="225.79531"
             inkscape:tile-x0="111.11165"
             inkscape:tile-h="62.262332"
             inkscape:tile-w="53.959391"
             inkscape:tile-cy="258.11789"
             inkscape:tile-cx="138.59602"
             sodipodi:nodetypes="cccccc"
             inkscape:connector-curvature="0"
             id="rect4143"
             d="m 114.0835,229.47814 16.42518,11.56689 8.33651,-11.56689 24.26335,57.2795 -24.76169,0 z"
             style="opacity:1;fill:#e3dbdb;fill-opacity:1;stroke:#000000;stroke-width:2.5999999;stroke-linecap:round;stroke-linejoin:round;stroke-miterlimit:4;stroke-dasharray:none;stroke-dashoffset:0;stroke-opacity:1" />
          <use
             id="use4332"
             transform="translate(26.494061,0)"
             xlink:href="#rect4143"
             inkscape:tiled-clone-of="#rect4143"
             y="0"
             x="0"
             width="100%"
             height="100%" />
          <use
             id="use4334"
             transform="translate(52.988122,0)"
             xlink:href="#rect4143"
             inkscape:tiled-clone-of="#rect4143"
             y="0"
             x="0"
             width="100%"
             height="100%" />
          <use
             height="100%"
             width="100%"
             id="use4336"
             transform="translate(79.482183,0)"
             xlink:href="#rect4143"
             inkscape:tiled-clone-of="#rect4143"
             y="0"
             x="0" />
        </g>
        <use
           x="0"
           y="0"
           xlink:href="#g4346"
           id="use4385"
           transform="matrix(1,0,0,-1,0,648.56589)"
           width="100%"
           height="100%" />
      </g>
      <g
         id="g4444">
        <rect
           style="opacity:1;fill:#deaa87;fill-opacity:1;stroke:#000000;stroke-width:2.5999999;stroke-linecap:round;stroke-linejoin:miter;stroke-miterlimit:4;stroke-dasharray:none;stroke-dashoffset:0;stroke-opacity:1"
           id="rect4136"
           width="485.88336"
           height="22.223349"
           x="119.198"
           y="311.92038" />
        <rect
           y="323.65259"
           x="118.80836"
           height="10.880783"
           width="486.66263"
           id="rect4430"
           style="opacity:1;fill:#000000;fill-opacity:0.52014657;stroke:none;stroke-width:1.82073462;stroke-linecap:round;stroke-linejoin:miter;stroke-miterlimit:4;stroke-dasharray:none;stroke-dashoffset:0;stroke-opacity:1" />
      </g>
    </g>
    <path
       inkscape:export-ydpi="13.947054"
       inkscape:export-xdpi="13.947054"
       sodipodi:nodetypes="ccaccac"
       inkscape:connector-curvature="0"
       id="path4190"
       d="m -245.76521,468.87019 22.39101,0 c 0,0 1.64524,6.64098 3.48054,9.45272 3.60205,5.51846 14.23411,13.7202 14.23411,13.7202 l -65.35947,2.41444 c 0,0 18.22571,-8.1523 23.41428,-16.06975 1.77111,-2.70261 1.83953,-9.51761 1.83953,-9.51761 z"
       style="opacity:1;fill:#c87137;fill-opacity:1;stroke:#000000;stroke-width:2.58995891;stroke-linecap:round;stroke-linejoin:round;stroke-miterlimit:4;stroke-dasharray:none;stroke-dashoffset:0;stroke-opacity:1"
       inkscape:export-filename="C:\Temp\proj\openarcher\src\assets\archer2.png" />
    <ellipse
       inkscape:export-ydpi="13.947054"
       inkscape:export-xdpi="13.947054"
       style="opacity:1;fill:#c87137;fill-opacity:1;stroke:#000000;stroke-width:1.68099999;stroke-linecap:round;stroke-linejoin:round;stroke-miterlimit:4;stroke-dasharray:none;stroke-dashoffset:0;stroke-opacity:1"
       id="ellipse4192"
       cx="-230.26228"
       cy="453.44455"
       rx="20.098763"
       ry="22.829634"
       inkscape:export-filename="C:\Temp\proj\openarcher\src\assets\archer2.png" />
    <path
       inkscape:export-ydpi="13.947054"
       inkscape:export-xdpi="13.947054"
       sodipodi:nodetypes="ccccccaaaaac"
       inkscape:connector-curvature="0"
       id="path4194"
       d="m -212.4726,438.52318 -16.92005,-0.25254 -9.09137,7.32361 -4.79823,13.13198 -1.26269,18.68782 -9.84899,9.59645 c 0,0 -1.86453,-9.89014 -2.0203,-14.89975 -0.14428,-4.63985 0.0773,-9.3422 1.01015,-13.8896 1.55674,-7.58876 2.75792,-15.90473 7.57615,-21.97082 3.15228,-3.96869 7.90867,-7.09188 12.87944,-8.08121 5.9449,-1.18322 12.89808,-0.34881 17.93021,3.03046 2.38528,1.60181 4.54568,7.3236 4.54568,7.3236 z"
       style="fill:#d4aa00;fill-rule:evenodd;stroke:#000000;stroke-width:1px;stroke-linecap:butt;stroke-linejoin:miter;stroke-opacity:1"
       inkscape:export-filename="C:\Temp\proj\openarcher\src\assets\archer2.png" />
    <path
       inkscape:export-ydpi="13.947054"
       inkscape:export-xdpi="13.947054"
       inkscape:connector-curvature="0"
       id="path4196"
       d="m -277.3749,715.81005 15.15229,1.01015 -5.05076,87.88328 -7.07107,0 z"
       style="fill:#c87137;fill-rule:evenodd;stroke:#000000;stroke-width:2;stroke-linecap:butt;stroke-linejoin:miter;stroke-miterlimit:4;stroke-dasharray:none;stroke-opacity:1"
       inkscape:export-filename="C:\Temp\proj\openarcher\src\assets\archer2.png" />
    <path
       inkscape:export-ydpi="13.947054"
       inkscape:export-xdpi="13.947054"
       inkscape:connector-curvature="0"
       id="path4198"
       d="m -217.27535,712.79743 15.15229,1.01015 -5.05076,87.88328 -7.07107,0 z"
       style="fill:#c87137;fill-rule:evenodd;stroke:#000000;stroke-width:2;stroke-linecap:butt;stroke-linejoin:miter;stroke-miterlimit:4;stroke-dasharray:none;stroke-opacity:1"
       inkscape:export-filename="C:\Temp\proj\openarcher\src\assets\archer2.png" />
    <path
       inkscape:export-ydpi="13.947054"
       inkscape:export-xdpi="13.947054"
       inkscape:connector-curvature="0"
       id="path4200"
       d="m -275.35248,611.35401 -10,112.85714 34.28572,0 7.14285,-62.85714 10,0 11.42857,58.57143 27.14286,-1.42857 -11.42857,-111.42857 z"
       style="fill:#6c5d53;fill-rule:evenodd;stroke:#000000;stroke-width:1px;stroke-linecap:butt;stroke-linejoin:miter;stroke-opacity:1"
       inkscape:export-filename="C:\Temp\proj\openarcher\src\assets\archer2.png" />
    <path
       inkscape:export-ydpi="13.947054"
       inkscape:export-xdpi="13.947054"
       sodipodi:nodetypes="cccccccccccc"
       inkscape:connector-curvature="0"
       id="path4202"
       d="m -281.55697,616.47656 81.10297,-0.54097 -2.49362,-20.84003 1.1517,-96.40978 69.42059,0.0867 -0.71428,-19.28572 -83.42401,0.0973 -17.0466,12.26547 -13.76213,-12.22955 -34.40794,0.0401 1.65379,112.40591 z"
       style="fill:#aa0000;fill-rule:evenodd;stroke:#000000;stroke-width:1px;stroke-linecap:butt;stroke-linejoin:miter;stroke-opacity:1"
       inkscape:export-filename="C:\Temp\proj\openarcher\src\assets\archer2.png" />
    <ellipse
       inkscape:export-ydpi="13.947054"
       inkscape:export-xdpi="13.947054"
       ry="11.357621"
       rx="7.7861934"
       cy="489.0632"
       cx="-121.05009"
       id="ellipse4204"
       style="opacity:1;fill:#c87137;fill-opacity:1;stroke:#000000;stroke-width:2;stroke-linecap:round;stroke-linejoin:round;stroke-miterlimit:4;stroke-dasharray:none;stroke-dashoffset:0;stroke-opacity:1"
       inkscape:export-filename="C:\Temp\proj\openarcher\src\assets\archer2.png" />
    <path
       inkscape:export-ydpi="13.947054"
       inkscape:export-xdpi="13.947054"
       sodipodi:nodetypes="ccccc"
       inkscape:connector-curvature="0"
       id="path4206"
       d="m -140.68789,476.50658 1.61207,29.9945 19.31483,0 -2.62863,-30.75924 z"
       style="fill:#ff2a2a;fill-opacity:1;fill-rule:evenodd;stroke:#000000;stroke-width:0.87284786px;stroke-linecap:butt;stroke-linejoin:miter;stroke-opacity:1"
       inkscape:export-filename="C:\Temp\proj\openarcher\src\assets\archer2.png" />
    <path
       inkscape:export-ydpi="13.947054"
       inkscape:export-xdpi="13.947054"
       sodipodi:nodetypes="cccaccc"
       inkscape:connector-curvature="0"
       id="path4208"
       d="m -215.89827,793.9183 1.45921,16.45831 25.95759,0.17857 c 0,0 -1.66079,-7.56654 -4.54569,-9.63978 -3.3973,-2.44148 -12.46628,-1.45395 -12.46628,-1.45395 l 0.52302,-6.01758 z"
       style="fill:#6c5d53;fill-rule:evenodd;stroke:#000000;stroke-width:1px;stroke-linecap:butt;stroke-linejoin:miter;stroke-opacity:1"
       inkscape:export-filename="C:\Temp\proj\openarcher\src\assets\archer2.png" />
    <path
       inkscape:export-ydpi="13.947054"
       inkscape:export-xdpi="13.947054"
       sodipodi:nodetypes="ccccccc"
       inkscape:connector-curvature="0"
       id="path4210"
       d="m -265.00053,798.13748 -11.61675,0 -0.10461,3.76487 c -2.53014,0.32685 -2.69929,6.78813 -3.17839,8.65283 l 17.16625,-0.21556 c 0.20093,-2.24061 -0.96471,-6.51563 -2.60569,-6.60822 0.3409,-3.12731 0.33919,-5.59392 0.33919,-5.59392 z"
       style="fill:#6c5d53;fill-rule:evenodd;stroke:#000000;stroke-width:1px;stroke-linecap:butt;stroke-linejoin:miter;stroke-opacity:1"
       inkscape:export-filename="C:\Temp\proj\openarcher\src\assets\archer2.png" />
    <path
       inkscape:export-ydpi="13.947054"
       inkscape:export-xdpi="13.947054"
       sodipodi:nodetypes="ccccc"
       inkscape:connector-curvature="0"
       id="path4212"
       d="m -200.6033,589.54098 0.50507,10.10153 -81.82235,-2.02031 0,-10.10152 z"
       style="fill:#a02c2c;fill-rule:evenodd;stroke:#000000;stroke-width:1px;stroke-linecap:butt;stroke-linejoin:miter;stroke-opacity:1"
       inkscape:export-filename="C:\Temp\proj\openarcher\src\assets\archer2.png" />
    <path
       inkscape:export-ydpi="13.947054"
       inkscape:export-xdpi="13.947054"
       sodipodi:nodetypes="ccccc"
       inkscape:connector-curvature="0"
       id="path4214"
       d="m -264.24291,479.93943 -52.52794,-0.50507 c -5.06374,5.55584 -2.88693,11.11167 0,16.66751 l 53.03301,0 z"
       style="fill:#aa0000;fill-rule:evenodd;stroke:#000000;stroke-width:1px;stroke-linecap:butt;stroke-linejoin:miter;stroke-opacity:1"
       inkscape:export-filename="C:\Temp\proj\openarcher\src\assets\archer2.png" />
    <path
       inkscape:export-ydpi="13.947054"
       inkscape:export-xdpi="13.947054"
       inkscape:connector-curvature="0"
       id="path4216"
       d="m -245.05002,586.00545 0,17.17259 7.57615,0 -1.01015,-18.18274 z"
       style="fill:#999999;fill-rule:evenodd;stroke:#000000;stroke-width:1px;stroke-linecap:butt;stroke-linejoin:miter;stroke-opacity:1"
       inkscape:export-filename="C:\Temp\proj\openarcher\src\assets\archer2.png" />
    <path
       inkscape:export-ydpi="13.947054"
       inkscape:export-xdpi="13.947054"
       inkscape:connector-curvature="0"
       id="path4218"
       d="m -212.85248,449.5683 8.21429,6.96429 -9.28572,1.25"
       style="fill:#c87137;fill-rule:evenodd;stroke:#000000;stroke-width:1px;stroke-linecap:butt;stroke-linejoin:miter;stroke-opacity:1"
       inkscape:export-filename="C:\Temp\proj\openarcher\src\assets\archer2.png" />
    <path
       inkscape:export-ydpi="13.947054"
       inkscape:export-xdpi="13.947054"
       sodipodi:open="true"
       d="m -215.33224,449.50067 a 2.219871,1.8645899 0 0 1 -2.1902,1.86442 2.219871,1.8645899 0 0 1 -2.24875,-1.81458 2.219871,1.8645899 0 0 1 2.13009,-1.91293 2.219871,1.8645899 0 0 1 2.30569,1.76345"
       sodipodi:end="6.2297204"
       sodipodi:start="0"
       sodipodi:ry="1.8645899"
       sodipodi:rx="2.219871"
       sodipodi:cy="449.50067"
       sodipodi:cx="-217.55211"
       sodipodi:type="arc"
       id="path4220"
       style="opacity:1;fill:#cccccc;fill-opacity:1;stroke:#000000;stroke-width:0.92082107;stroke-linecap:round;stroke-linejoin:round;stroke-miterlimit:4;stroke-dasharray:none;stroke-dashoffset:0;stroke-opacity:1"
       inkscape:export-filename="C:\Temp\proj\openarcher\src\assets\archer2.png" />
    <path
       inkscape:export-ydpi="13.947054"
       inkscape:export-xdpi="13.947054"
       inkscape:connector-curvature="0"
       id="path4222"
       d="m -243.74533,458.3183 2.67857,3.03571 3.03571,-1.96428 -3.39285,-10.71429 z"
       style="fill:#c87137;fill-rule:evenodd;stroke:#000000;stroke-width:1px;stroke-linecap:butt;stroke-linejoin:miter;stroke-opacity:1"
       inkscape:export-filename="C:\Temp\proj\openarcher\src\assets\archer2.png" />
    <path
       inkscape:export-ydpi="13.947054"
       inkscape:export-xdpi="13.947054"
       inkscape:connector-curvature="0"
       id="path4224"
       d="m -254.63819,440.99687 7.85714,-28.57143 30,-0.71429 8.92857,26.07143"
       style="fill:#aa0000;fill-rule:evenodd;stroke:#000000;stroke-width:1px;stroke-linecap:butt;stroke-linejoin:miter;stroke-opacity:1"
       inkscape:export-filename="C:\Temp\proj\openarcher\src\assets\archer2.png" />
    <path
       inkscape:export-ydpi="13.947054"
       inkscape:export-xdpi="13.947054"
       sodipodi:nodetypes="ccccc"
       inkscape:connector-curvature="0"
       id="path4226"
       d="m -271.06677,438.49687 0.35715,5.71428 78.57143,-1.78571 -2.14286,-6.78571 z"
       style="fill:#aa0000;fill-rule:evenodd;stroke:#000000;stroke-width:1px;stroke-linecap:butt;stroke-linejoin:miter;stroke-opacity:1"
       inkscape:export-filename="C:\Temp\proj\openarcher\src\assets\archer2.png" />
    <path
       inkscape:export-ydpi="13.947054"
       inkscape:export-xdpi="13.947054"
       inkscape:connector-curvature="0"
       id="path4228"
       d="m -220.55382,445.21544 0.12627,1.51523 5.05076,-0.75762 0,-0.88388 z"
       style="fill:#000000;fill-rule:evenodd;stroke:#000000;stroke-width:1px;stroke-linecap:butt;stroke-linejoin:miter;stroke-opacity:1"
       inkscape:export-filename="C:\Temp\proj\openarcher\src\assets\archer2.png" />
    <g
       inkscape:export-ydpi="13.947054"
       inkscape:export-xdpi="13.947054"
       id="g4230"
       transform="translate(-516.78105,1.8489483)"
       inkscape:export-filename="C:\Temp\proj\openarcher\src\assets\archer2.png">
      <rect
         transform="matrix(-0.79972479,0.60036678,-0.60036678,-0.79972479,0,0)"
         style="opacity:1;fill:#e3dbdb;fill-opacity:1;stroke:#000000;stroke-width:1;stroke-linecap:round;stroke-linejoin:round;stroke-miterlimit:4;stroke-dasharray:none;stroke-dashoffset:0;stroke-opacity:1"
         id="rect4232"
         width="2.5653806"
         height="119.21172"
         x="76.067673"
         y="-665.72144" />
      <rect
         y="75.157516"
         x="514.25104"
         height="116.17352"
         width="2.5"
         id="rect4234"
         style="opacity:1;fill:#e3dbdb;fill-opacity:1;stroke:#000000;stroke-width:1;stroke-linecap:round;stroke-linejoin:round;stroke-miterlimit:4;stroke-dasharray:none;stroke-dashoffset:0;stroke-opacity:1"
         transform="matrix(0.75696846,0.65345141,-0.65345141,0.75696846,0,0)" />
      <g
         id="g4236"
         transform="translate(-182.14286,73.928571)">
        <path
           style="fill:#a05a2c;fill-rule:evenodd;stroke:#000000;stroke-width:1.14567018px;stroke-linecap:butt;stroke-linejoin:miter;stroke-opacity:1"
           d="m 517.02171,317.86598 -0.45095,1.25556 c 25.82326,11.32369 40.98868,22.42456 48.38631,35.11806 6.4232,11.02149 14.67807,31.34344 15.31669,57.30166 0.52137,21.19247 -5.49268,42.65137 -15.48798,59.95404 -9.92668,17.18387 -24.92811,23.97522 -49.28829,34.91492 l 0.53298,2.16157 c 0,0 69.36984,-11.66272 69.3955,-96.0882 0.0258,-84.42548 -68.40426,-94.61761 -68.40426,-94.61761 z"
           id="path4238"
           inkscape:connector-curvature="0"
           sodipodi:nodetypes="ccsssccsc" />
        <path
           style="opacity:1;fill:#e3dbdb;fill-opacity:1;stroke:#000000;stroke-width:1;stroke-linecap:round;stroke-linejoin:round;stroke-miterlimit:4;stroke-dasharray:none;stroke-dashoffset:0;stroke-opacity:1"
           id="path4240"
           sodipodi:type="arc"
           sodipodi:cx="598.92975"
           sodipodi:cy="121.41381"
           sodipodi:rx="1.4285715"
           sodipodi:ry="3.125"
           sodipodi:start="0"
           sodipodi:end="6.2297259"
           sodipodi:open="true"
           d="m 600.35832,121.41381 a 1.4285715,3.125 0 0 1 -1.40948,3.12472 1.4285715,3.125 0 0 1 -1.44715,-3.0412 1.4285715,3.125 0 0 1 1.3708,-3.20601 1.4285715,3.125 0 0 1 1.48379,2.95551"
           transform="matrix(0.93944003,0.34271335,-0.34271335,0.93944003,0,0)"
           inkscape:transform-center-x="0.00012571027"
           inkscape:transform-center-y="-1.964386" />
        <path
           inkscape:transform-center-y="-1.964386"
           inkscape:transform-center-x="0.00012571027"
           transform="matrix(0.93944003,0.34271335,-0.34271335,0.93944003,0,0)"
           d="m 602.84624,122.50207 a 1.4285715,3.125 0 0 1 -1.40948,3.12472 1.4285715,3.125 0 0 1 -1.44716,-3.0412 1.4285715,3.125 0 0 1 1.3708,-3.20601 1.4285715,3.125 0 0 1 1.48379,2.95551"
           sodipodi:open="true"
           sodipodi:end="6.2297259"
           sodipodi:start="0"
           sodipodi:ry="3.125"
           sodipodi:rx="1.4285715"
           sodipodi:cy="122.50207"
           sodipodi:cx="601.41766"
           sodipodi:type="arc"
           id="path4242"
           style="opacity:1;fill:#e3dbdb;fill-opacity:1;stroke:#000000;stroke-width:1;stroke-linecap:round;stroke-linejoin:round;stroke-miterlimit:4;stroke-dasharray:none;stroke-dashoffset:0;stroke-opacity:1" />
        <path
           inkscape:transform-center-y="7.0644926"
           inkscape:transform-center-x="2.4234354"
           transform="matrix(0.8727029,-0.48825163,0.48825163,0.8727029,0,0)"
           d="m 207.01759,695.39917 a 1.4285715,3.125 0 0 1 -1.40948,3.12472 1.4285715,3.125 0 0 1 -1.44715,-3.0412 1.4285715,3.125 0 0 1 1.3708,-3.20601 1.4285715,3.125 0 0 1 1.48379,2.95551"
           sodipodi:open="true"
           sodipodi:end="6.2297259"
           sodipodi:start="0"
           sodipodi:ry="3.125"
           sodipodi:rx="1.4285715"
           sodipodi:cy="695.39917"
           sodipodi:cx="205.58902"
           sodipodi:type="arc"
           id="path4244"
           style="opacity:1;fill:#e3dbdb;fill-opacity:1;stroke:#000000;stroke-width:1;stroke-linecap:round;stroke-linejoin:round;stroke-miterlimit:4;stroke-dasharray:none;stroke-dashoffset:0;stroke-opacity:1" />
        <path
           style="opacity:1;fill:#e3dbdb;fill-opacity:1;stroke:#000000;stroke-width:1;stroke-linecap:round;stroke-linejoin:round;stroke-miterlimit:4;stroke-dasharray:none;stroke-dashoffset:0;stroke-opacity:1"
           id="path4246"
           sodipodi:type="arc"
           sodipodi:cx="208.36285"
           sodipodi:cy="695.2005"
           sodipodi:rx="1.4285715"
           sodipodi:ry="3.125"
           sodipodi:start="0"
           sodipodi:end="6.2297259"
           sodipodi:open="true"
           d="m 209.79143,695.2005 a 1.4285715,3.125 0 0 1 -1.40948,3.12472 1.4285715,3.125 0 0 1 -1.44716,-3.0412 1.4285715,3.125 0 0 1 1.3708,-3.20601 1.4285715,3.125 0 0 1 1.48379,2.95551"
           transform="matrix(0.8727029,-0.48825163,0.48825163,0.8727029,0,0)"
           inkscape:transform-center-x="-0.27911844"
           inkscape:transform-center-y="6.7994889" />
      </g>
    </g>
    <g
       inkscape:export-ydpi="13.947054"
       inkscape:export-xdpi="13.947054"
       transform="translate(-479.90605,24.884662)"
       id="g4248"
       inkscape:export-filename="C:\Temp\proj\openarcher\src\assets\archer2.png">
      <path
         style="opacity:1;fill:#c87137;fill-opacity:1;stroke:#000000;stroke-width:1;stroke-linecap:round;stroke-linejoin:round;stroke-miterlimit:4;stroke-dasharray:none;stroke-dashoffset:0;stroke-opacity:1"
         d="m 219.96094,454.45117 0,15.56055 c 2.75068,0.009 5.72551,0 8.33212,0 0.84691,-0.77542 1.75571,-1.29361 1.77344,-2.26169 -0.0399,-0.83238 -1.76758,-1.76758 -1.76758,-1.76758 l -0.006,0 0,-0.0723 c 0.17038,-0.11696 1.81712,-1.26698 1.77344,-2.17774 -0.0287,-0.59934 -0.92194,-1.24203 -1.42579,-1.56054 l 5.48633,-0.14649 c 0,0 1.87803,-1.26365 1.83203,-2.22266 -0.032,-0.66763 -1.11146,-1.37626 -1.55273,-1.64062 0.51753,-0.39086 1.58777,-1.28915 1.55273,-2.01953 -0.0399,-0.83238 -1.76757,-1.76758 -1.76757,-1.76758 -4.71603,-0.0245 -9.87867,0.0815 -14.23047,0.0762 z"
         id="path4250"
         inkscape:connector-curvature="0"
         sodipodi:nodetypes="cccccccscccccccc" />
      <path
         style="fill:none;fill-rule:evenodd;stroke:#000000;stroke-width:1.08906877px;stroke-linecap:round;stroke-linejoin:miter;stroke-opacity:1"
         d="m 228.41045,458.16578 6.03626,0"
         id="path4252"
         inkscape:connector-curvature="0" />
    </g>
    <path
       inkscape:export-ydpi="13.947054"
       inkscape:export-xdpi="13.947054"
       style="fill:#ff2a2a;fill-opacity:1;fill-rule:evenodd;stroke:#000000;stroke-width:0.87284786px;stroke-linecap:butt;stroke-linejoin:miter;stroke-opacity:1"
       d="m -272.00772,477.51673 1.61207,29.9945 19.31483,0 -2.62863,-30.75924 z"
       id="path4254"
       inkscape:connector-curvature="0"
       sodipodi:nodetypes="ccccc"
       inkscape:export-filename="C:\Temp\proj\openarcher\src\assets\archer2.png" />
  </g>
</svg>
